<svg id="Group_646" data-name="Group 646" xmlns="http://www.w3.org/2000/svg" xmlns:xlink="http://www.w3.org/1999/xlink" width="1257.062" height="491.637" viewBox="0 0 1257.062 491.637">
  <defs>
    <clipPath id="clip-path">
      <path id="Path_3845" data-name="Path 3845" d="M970.787,884.6c-8.4-123.627,96.8-189.521,115.7-199.724l-12.9-10.022,5.641-8.823c201.643-38.409,499.007-21.965,554.939-15.243S1878.3,752.571,1914.791,772.253c128.429,7.2,221.329,35.769,231.172,42.97,28.326,24.486,64.093,83.779,62.893,123.388-2.734,44.9-41.492,87.168-83.943,98.27a5.444,5.444,0,0,1-6.822-5.268v-19.691a141.173,141.173,0,0,0-251.63-87.9c-27.685,34.767-22.991,48.221-22.991,91.872a17.181,17.181,0,0,1-17.148,17.148H1294.093a17.181,17.181,0,0,1-17.148-17.148c0-43.65,4.695-57.1-22.991-91.872a141.174,141.174,0,0,0-251.63,87.9v16.33a5.444,5.444,0,0,1-6.822,5.268c-1.686-.441-37.919-20.851-43.679-62.141V892.493a7.908,7.908,0,0,1,7.892-7.893Z" transform="translate(-951.823 -641.483)" fill="#013173" clip-rule="evenodd"/>
    </clipPath>
    <clipPath id="clip-path-2">
      <path id="Path_3847" data-name="Path 3847" d="M996.446,836.344c-1.485-21.841-3.5-43.4,5.086-60.121,27.2-52.958,121.385-53.792,174.041-57.88,63.536-4.934,132.942-5.69,203.874-4.635,274.056,4.078,568.753,43.217,615.948,47.646l80.887-20.848c20.629,3.939,38.484,8.084,53.02,11.941,15.869,29.261,32.854,59.474,32.854,59.474l-16.436,15.762c-18.418-16.064-49.26-27.711-89.181-36.235-62.987-13.451-260.858-21.214-464.367-27.4-242.891-7.388-493.812-10.5-533.023,9.6-29.9,13.794-43.418,63.6-62.7,62.7" transform="translate(-995.119 -713.294)" fill="#0c4589" clip-rule="evenodd"/>
    </clipPath>
    <clipPath id="clip-path-3">
      <path id="Path_3848" data-name="Path 3848" d="M1824.127,952.418h-20.719a17.182,17.182,0,0,1-17.148-17.148c0-43.65,4.7-57.1-22.991-91.872a141.173,141.173,0,0,0-251.63,87.9v16.33a5.444,5.444,0,0,1-6.822,5.268c-.8-.209-9.427-4.944-18.868-14.3-.1-2.423-.166-4.855-.166-7.3a169.826,169.826,0,1,1,338.344,21.124" transform="translate(-1485.783 -761.469)" fill="none" clip-rule="evenodd"/>
    </clipPath>
    <linearGradient id="linear-gradient" x1="0.588" y1="0.827" x2="0.386" y2="0.079" gradientUnits="objectBoundingBox">
      <stop offset="0" stop-color="#3cbedb"/>
      <stop offset="1" stop-color="#4fd6f4"/>
    </linearGradient>
    <clipPath id="clip-path-4">
      <path id="Path_3850" data-name="Path 3850" d="M1337.239,946.873a105.377,105.377,0,0,1-27.855,11.986,5.444,5.444,0,0,1-6.822-5.268V933.9a141.173,141.173,0,0,0-251.63-87.9c-27.685,34.767-22.991,48.221-22.991,91.872a17.18,17.18,0,0,1-17.148,17.148H986.366A178.331,178.331,0,0,1,985.1,933.9a176.307,176.307,0,1,1,352.614,0q0,6.546-.477,12.973" transform="translate(-985.102 -757.592)" fill="#0c4589" clip-rule="evenodd"/>
    </clipPath>
    <clipPath id="clip-path-5">
      <path id="Path_3875" data-name="Path 3875" d="M1241.917,697c-4.068-20.323-7.609-37.845-8.682-43.15q6.806.105,13.658.273,7.634.183,15.322.446c9.512.328,19.077.749,28.688,1.329,9.572.577,19.123,1.309,28.612,2.257,7.041.7,14.249,1.52,21.462,2.591,7.166,1.063,14.284,2.373,21.152,4.061,8.238,2.026,16.419,4.531,24.488,7.358s16.046,5.984,23.864,9.313q13.122,5.585,25.869,11.881c8.514,4.185,16.94,8.586,25.27,13.137q10,5.465,19.863,11.242c.395.232.791.463,1.185.7C1394.241,704.8,1313.792,699.261,1241.917,697" transform="translate(-1233.235 -653.852)" fill="#e6e6e6" clip-rule="evenodd"/>
    </clipPath>
    <clipPath id="clip-path-6">
      <path id="Path_3876" data-name="Path 3876" d="M1581.359,653.725c.544,7.066,1.813,23.6,3.205,42.416-70.791-1.251-132.36.028-184.056-1.453,7.5-12.456,15.927-25.864,23.063-35.717q20.294-1.226,40.452-2.162,20.6-.956,41.1-1.629,19.361-.64,38.709-1.028,18.762-.366,37.522-.428" transform="translate(-1400.509 -653.725)" fill="none" clip-rule="evenodd"/>
    </clipPath>
    <linearGradient id="linear-gradient-2" x1="0.5" y1="0.985" x2="0.5" y2="0.186" gradientUnits="objectBoundingBox">
      <stop offset="0" stop-color="#00666a"/>
      <stop offset="1" stop-color="#009398"/>
    </linearGradient>
    <clipPath id="clip-path-7">
      <path id="Path_3877" data-name="Path 3877" d="M1631.9,658.818l-17,30.432c-36.282-2.714-66.335-8.057-89.842-18.609q.667-.13,1.337-.242c7.165-1.2,14.331-2.249,21.483-3.19,7.108-.935,14.334-1.784,21.587-2.593q14.223-1.582,28.161-2.877c9.2-.861,18.627-1.67,28.215-2.44Z" transform="translate(-1525.058 -658.818)" fill="none" clip-rule="evenodd"/>
    </clipPath>
    <linearGradient id="linear-gradient-3" x1="0.509" y1="0.202" x2="0.491" y2="0.778" gradientUnits="objectBoundingBox">
      <stop offset="0" stop-color="#009398"/>
      <stop offset="1" stop-color="#00666a"/>
    </linearGradient>
  </defs>
  <path id="Path_3842" data-name="Path 3842" d="M1019.185,923.677h-10.891c-.005-43.593-11.017-75.777,16.654-110.524,25.854-32.466,72.065-34.535,116.814-34.535a141.153,141.153,0,0,1,141.153,141.153v3.906h-263.73Z" transform="translate(-116.648 -549.331)" fill="#0a6cb4" fill-rule="evenodd"/>
  <path id="Path_3843" data-name="Path 3843" d="M1530.953,923.677h-27.6c0-43.593,5.691-75.777,33.363-110.524,25.854-32.466,72.065-34.535,116.814-34.535a141.153,141.153,0,0,1,141.153,141.153v3.906h-263.73Z" transform="translate(-1459.766 -549.331)" fill="#2f8080" fill-rule="evenodd"/>
  <g id="Group_633" data-name="Group 633" transform="translate(0 0)">
    <path id="Path_3844" data-name="Path 3844" d="M970.787,884.6c-8.4-123.627,96.8-189.521,115.7-199.724l-12.9-10.022,5.641-8.823c201.643-38.409,499.007-21.965,554.939-15.243S1878.3,752.571,1914.791,772.253c128.429,7.2,221.329,35.769,231.172,42.97,28.326,24.486,64.093,83.779,62.893,123.388-2.734,44.9-41.492,87.168-83.943,98.27a5.444,5.444,0,0,1-6.822-5.268v-19.691a141.173,141.173,0,0,0-251.63-87.9c-27.685,34.767-22.991,48.221-22.991,91.872a17.181,17.181,0,0,1-17.148,17.148H1294.093a17.181,17.181,0,0,1-17.148-17.148c0-43.65,4.695-57.1-22.991-91.872a141.174,141.174,0,0,0-251.63,87.9v16.33a5.444,5.444,0,0,1-6.822,5.268c-1.686-.441-37.919-20.851-43.679-62.141V892.493a7.908,7.908,0,0,1,7.892-7.893Z" transform="translate(-951.823 -641.483)" fill="#013173" fill-rule="evenodd"/>
    <g id="Group_632" data-name="Group 632" clip-path="url(#clip-path)">
      <rect id="Rectangle_22" data-name="Rectangle 22" width="1258.234" height="409.7" transform="translate(-0.001 -13.859)" fill="#013173"/>
    </g>
  </g>
  <g id="Group_635" data-name="Group 635" transform="translate(17.637 120.066)">
    <path id="Path_3846" data-name="Path 3846" d="M996.446,836.344c-1.485-21.841-3.5-43.4,5.086-60.121,27.2-52.958,121.385-53.792,174.041-57.88,63.536-4.934,132.942-5.69,203.874-4.635,274.056,4.078,568.753,43.217,615.948,47.646l80.887-20.848c20.629,3.939,38.484,8.084,53.02,11.941,15.869,29.261,32.854,59.474,32.854,59.474l-16.436,15.762c-18.418-16.064-49.26-27.711-89.181-36.235-62.987-13.451-260.858-21.214-464.367-27.4-242.891-7.388-493.812-10.5-533.023,9.6-29.9,13.794-43.418,63.6-62.7,62.7" transform="translate(-995.119 -713.294)" fill="#0c4589" fill-rule="evenodd"/>
    <g id="Group_634" data-name="Group 634" clip-path="url(#clip-path-2)">
      <rect id="Rectangle_23" data-name="Rectangle 23" width="1169.209" height="124.59" transform="translate(-2.173 -0.64)" fill="#0c4589"/>
    </g>
  </g>
  <g id="Group_637" data-name="Group 637" transform="translate(24.645 200.614)">
    <g id="Group_636" data-name="Group 636" transform="translate(0)" clip-path="url(#clip-path-3)">
      <rect id="Rectangle_24" data-name="Rectangle 24" width="339.651" height="191.865" transform="translate(0 0.001)" fill="url(#linear-gradient)"/>
    </g>
  </g>
  <g id="Group_639" data-name="Group 639" transform="translate(848.807 194.132)">
    <path id="Path_3849" data-name="Path 3849" d="M1337.239,946.873a105.377,105.377,0,0,1-27.855,11.986,5.444,5.444,0,0,1-6.822-5.268V933.9a141.173,141.173,0,0,0-251.63-87.9c-27.685,34.767-22.991,48.221-22.991,91.872a17.18,17.18,0,0,1-17.148,17.148H986.366A178.331,178.331,0,0,1,985.1,933.9a176.307,176.307,0,1,1,352.614,0q0,6.546-.477,12.973" transform="translate(-985.102 -757.592)" fill="#0c4589" fill-rule="evenodd"/>
    <g id="Group_638" data-name="Group 638" transform="translate(0)" clip-path="url(#clip-path-4)">
      <rect id="Rectangle_25" data-name="Rectangle 25" width="352.614" height="201.708" transform="translate(0 0.001)" fill="#0c4589"/>
    </g>
  </g>
  <path id="Path_3851" data-name="Path 3851" d="M1121.2,817.436a76.25,76.25,0,1,0,76.25,76.25,76.252,76.252,0,0,0-76.25-76.25" transform="translate(-96.082 -523.247)" fill="#0a6cb4" fill-rule="evenodd"/>
  <path id="Path_3852" data-name="Path 3852" d="M1139.261,832.083a79.668,79.668,0,1,0,79.668,79.668,79.669,79.669,0,0,0-79.668-79.668m0-41.53a121.2,121.2,0,1,0,121.2,121.2A121.2,121.2,0,0,0,1139.261,790.553Z" transform="translate(-114.147 -541.311)" fill="#323232" fill-rule="evenodd"/>
  <path id="Path_3853" data-name="Path 3853" d="M1122.57,832.675a62.385,62.385,0,1,0,62.385,62.385,62.384,62.384,0,0,0-62.385-62.385m0-17.283a79.668,79.668,0,1,0,79.668,79.668A79.669,79.669,0,0,0,1122.57,815.392Z" transform="translate(-97.456 -524.62)" fill="#bbb" fill-rule="evenodd"/>
  <path id="Path_3854" data-name="Path 3854" d="M1118.31,828.415a62.385,62.385,0,1,0,62.385,62.385,62.384,62.384,0,0,0-62.385-62.385m0-6.683a69.068,69.068,0,1,0,69.069,69.068A69.068,69.068,0,0,0,1118.308,821.732Z" transform="translate(-93.195 -520.36)" fill="#a5a5a5" fill-rule="evenodd"/>
  <path id="Path_3855" data-name="Path 3855" d="M1105.769,865.9a29.691,29.691,0,0,0-6.735,4.9c-27.246-1.893-37.33-14.68-37.748-21.267-6.012,6.574-9.539,17.6-10.326,20.261-.923,2.613-4.55,13.61-3.546,22.461,4.208-5.084,19.876-9.507,43.03,4.959a29.508,29.508,0,0,0,2.573,7.922c-10.244,25.3-25.519,30.916-31.91,29.273,4.386,7.753,13.779,14.524,16.061,16.1,2.2,1.687,11.53,8.544,20.256,10.333-3.53-5.576-2.878-21.848,18.062-39.38a29.775,29.775,0,0,0,4.167.293,30.084,30.084,0,0,0,4.17-.291c20.938,17.531,21.59,33.8,18.061,39.378,8.726-1.789,18.057-8.646,20.256-10.333,2.282-1.573,11.676-8.345,16.061-16.1-6.39,1.643-21.667-3.976-31.91-29.273a29.5,29.5,0,0,0,2.573-7.922c23.153-14.466,38.822-10.044,43.03-4.959,1-8.851-2.623-19.848-3.546-22.461-.788-2.657-4.314-13.687-10.326-20.261-.418,6.588-10.5,19.375-37.748,21.267a29.691,29.691,0,0,0-6.735-4.9c-6.606-26.487,2.439-40.024,8.574-42.455-8.109-3.688-19.687-3.635-22.46-3.565-2.769-.07-14.349-.124-22.458,3.565,6.135,2.431,15.182,15.967,8.574,42.455" transform="translate(-94.54 -521.614)" fill="#bbb" fill-rule="evenodd"/>
  <path id="Path_3856" data-name="Path 3856" d="M1093.8,858.211a8.076,8.076,0,1,0,8.077,8.076,8.076,8.076,0,0,0-8.077-8.076" transform="translate(-68.683 -495.847)" fill="#a5a5a5" fill-rule="evenodd"/>
  <path id="Path_3857" data-name="Path 3857" d="M1091.946,850.529a3.471,3.471,0,1,0,3.471,3.471,3.471,3.471,0,0,0-3.471-3.471" transform="translate(-66.833 -501.009)" fill="#195252" fill-rule="evenodd"/>
  <path id="Path_3858" data-name="Path 3858" d="M1085.319,860.14a3.471,3.471,0,1,0-2.231,4.372,3.471,3.471,0,0,0,2.231-4.372" transform="translate(-40.305 -496.164)" fill="#195252" fill-rule="evenodd"/>
  <path id="Path_3859" data-name="Path 3859" d="M1087.852,875.685a3.471,3.471,0,1,0-4.849-.764,3.47,3.47,0,0,0,4.849.764" transform="translate(-50.437 -488.323)" fill="#195252" fill-rule="evenodd"/>
  <path id="Path_3860" data-name="Path 3860" d="M1096.039,875.685a3.471,3.471,0,1,0-.764-4.849,3.469,3.469,0,0,0,.764,4.849" transform="translate(-83.227 -488.323)" fill="#195252" fill-rule="evenodd"/>
  <path id="Path_3861" data-name="Path 3861" d="M1098.573,860.14a3.471,3.471,0,1,0,4.374-2.23,3.471,3.471,0,0,0-4.374,2.23" transform="translate(-93.36 -496.164)" fill="#195252" fill-rule="evenodd"/>
  <path id="Path_3862" data-name="Path 3862" d="M1255.842,785.551c-12.419-.237-29.893.206-42.934,1.04a304.425,304.425,0,0,0-42.172-14.282c-51.961-13.785-106.347-18.027-131.524-19.392-7.393-.4-12.185-.66-13.409-.99-4.456-1.2-13.622-5.195-23.5-9.922-8.918-4.265-18.413-9.122-25.566-13.051,15.932-.375,31.321-5,37.987-8.841,122.537,8.179,210.3,35.285,219.846,42.272a159.515,159.515,0,0,1,21.277,23.165" transform="translate(-40.425 -588.645)" fill="#013173" fill-rule="evenodd"/>
  <path id="Path_3863" data-name="Path 3863" d="M1250.016,762.82c-41.29-14.4-190.12-41.289-249.654-42.49l-6.328,7.529,11.49,5.914c41.049,1.441,154.833,10.564,244.493,29.047" transform="translate(-63.53 -588.499)" fill="#0c4589" fill-rule="evenodd"/>
  <path id="Path_3864" data-name="Path 3864" d="M1290.737,760.25a271.108,271.108,0,0,0,31.7,6.078c13.178,1.812,26.474,2.993,39.74,3.929,16.669,1.175,33.379,1.961,50.075,2.642,20.9.851,41.8,1.525,62.706,2.205,57.5,1.869,114.963,3.847,172.435,6.484q125.253,5.746,250.3,14.88a6.805,6.805,0,0,0,5.044-11.854c-7.108-6.362-14.585-12.389-22.147-18.2-9.311-7.154-18.853-14.028-28.531-20.679a799.536,799.536,0,0,0-69.3-42.655c-16.845-9.206-34.115-17.81-51.782-25.332-15.969-6.8-32.605-12.9-49.474-17.044-6.509-1.6-13.142-2.821-19.764-3.849-7.924-1.231-15.9-2.184-23.876-2.979-19.181-1.916-38.517-2.956-57.78-3.618-22.394-.767-44.821-.986-67.227-.879q-35.967.173-71.923,1.4c-45.087,1.485-90.238,3.944-135.208,7.554-18.887,1.516-37.771,3.242-56.6,5.34-14.5,1.617-29.079,3.422-43.473,5.838a74.992,74.992,0,0,0-33.928,16.153l-1.125.992.893,1.207a23.734,23.734,0,0,0,3.3,3.374c1.772,1.568,3.643,3.051,5.522,4.491,5.429,4.161,11.108,8.086,16.788,11.9,15.549,10.426,31.7,20.258,48,29.465a486.269,486.269,0,0,0,45.4,23.077l.115.05Z" transform="translate(-1013.743 -636.195)" fill="#0a6cb4" fill-rule="evenodd"/>
  <path id="Path_3865" data-name="Path 3865" d="M1473.616,729.082c13.933,20.012,25.964,43.229,30.844,55.6q-101.3-6.844-202.715-11.552-37.642-1.725-75.281-3.122c-5.542-29.853-23.187-116.988-23.187-116.988q15.359.226,30.684.746c19.132.656,38.338,1.689,57.39,3.59,14.178,1.416,28.957,3.28,42.8,6.686,16.554,4.071,32.889,10.067,48.561,16.74,17.486,7.445,34.581,15.964,51.256,25.076q20.116,10.992,39.643,23.219" transform="translate(-667.824 -633.726)" fill="#cecece" fill-rule="evenodd"/>
  <path id="Path_3866" data-name="Path 3866" d="M1492.647,757.084c-5.1-9.2-11.1-19.057-17.479-28.223l-.159-.226-.241-.152q-9.718-6.079-19.773-11.971-9.9-5.8-19.938-11.284-12.517-6.839-25.377-13.19c-8.589-4.222-17.258-8.224-26-11.945-7.853-3.344-15.882-6.522-24.034-9.378s-16.419-5.387-24.733-7.432c-6.979-1.715-14.177-3.041-21.406-4.115-7.181-1.067-14.453-1.891-21.589-2.6-9.562-.953-19.142-1.689-28.719-2.266-9.539-.577-19.142-1-28.763-1.329q-7.631-.261-15.342-.448-7.646-.186-15.367-.3l-1.678-.025.333,1.647c.052.251,17.631,87.068,23.182,116.966l.2,1.07,1.089.04q18.764.707,37.634,1.485,18.767.775,37.635,1.639,50.633,2.322,101.375,5.227,50.573,2.889,101.308,6.325l2.142.144-.786-1.995a254.639,254.639,0,0,0-13.513-27.663m-19.555-26.444c6.295,9.06,12.184,18.746,17.185,27.763a267.919,267.919,0,0,1,12.543,25.337q-49.48-3.333-99.175-6.178-50.615-2.892-101.405-5.227-18.77-.863-37.646-1.639-18.223-.752-36.559-1.443c-5.278-28.273-20.238-102.331-22.659-114.293q6.807.105,13.658.273,7.634.183,15.322.446c9.512.328,19.077.749,28.688,1.329,9.572.577,19.122,1.309,28.612,2.257,7.041.7,14.249,1.52,21.461,2.591,7.166,1.063,14.284,2.373,21.152,4.061,8.238,2.026,16.419,4.531,24.488,7.358s16.046,5.984,23.864,9.313q13.122,5.585,25.869,11.881c8.514,4.185,16.94,8.586,25.27,13.137q10,5.465,19.863,11.242Q1463.359,724.555,1473.092,730.641Z" transform="translate(-668.26 -634.281)" fill="#006669"/>
  <path id="Path_3867" data-name="Path 3867" d="M1396.751,729.031s25.872-46.638,43.5-70.83q41.1-2.5,82.231-3.831c25.779-.849,51.662-1.408,77.533-1.458,1.078,13.959,6.584,85.645,8.231,115.538q-25.87-.893-51.749-1.727c-20.886-.679-41.776-1.353-62.656-2.2-16.636-.677-33.287-1.46-49.9-2.632-13.134-.926-26.3-2.093-39.345-3.887q-3.928-.539-7.852-1.165Z" transform="translate(-1095.095 -633.802)" fill="#00666a" fill-rule="evenodd"/>
  <path id="Path_3868" data-name="Path 3868" d="M1439.661,657.95c-17.689,24.27-43.52,70.833-43.595,70.969l-.176.314v29.306l1.149.182c1.466.236,2.776.438,3.941.61s2.491.361,3.942.56c6.529.9,13.1,1.64,19.693,2.274,6.648.64,13.22,1.165,19.738,1.625q12.379.873,24.966,1.5c8.27.423,16.611.789,24.974,1.13,20.146.821,40.37,1.478,60.591,2.135l2.076.068q12.939.421,25.877.851t25.872.876l1.48.052-.082-1.481c-.828-15.014-2.615-40.4-4.329-63.767-1.724-23.5-3.366-44.846-3.9-51.8l-.1-1.256-1.259,0q-19.427.038-38.822.43-19.444.379-38.753,1.028-20.608.68-41.135,1.63-20.651.958-41.134,2.2l-.637.038Zm-41.048,71.97c2.272-4.081,26.126-46.745,42.863-69.857q20.294-1.226,40.452-2.162,20.6-.956,41.1-1.629,19.361-.64,38.709-1.028,18.762-.366,37.522-.428c.62,8.067,2.187,28.479,3.8,50.532,1.664,22.677,3.394,47.2,4.247,62.243q-12.2-.419-24.392-.826-12.936-.429-25.875-.849l-2.077-.068c-20.167-.655-40.34-1.312-60.569-2.135q-12.409-.506-24.944-1.132-12.384-.634-24.911-1.5c-6.618-.467-13.2-.988-19.674-1.614-6.536-.629-13.07-1.368-19.587-2.264-1.167-.159-2.463-.346-3.911-.56-.988-.145-1.911-.286-2.76-.418Z" transform="translate(-1095.596 -634.347)" fill="#006669"/>
  <path id="Path_3869" data-name="Path 3869" d="M1376.759,649.364c.057.37,21.186,135.039,22.14,156.047l.164,3.493c1.542,32.269,8.846,196.845-13.708,218.846h2.7c23.429-22.856,15.267-186.505,13.717-218.973l-.166-3.483c-.965-21.241-22.07-155.545-22.127-155.915Z" transform="translate(-857.825 -636.187)" fill="#0a6cb4"/>
  <path id="Path_3870" data-name="Path 3870" d="M1178.337,736.585c.042.137,14.189,51.04,6.379,122.888l3.4-5.6c7.868-72.388-6.807-116.945-6.847-117.083Z" transform="translate(-312.095 -577.576)" fill="#0a6cb4"/>
  <path id="Path_3871" data-name="Path 3871" d="M1586.425,653.216l-71.1,104.587a56.085,56.085,0,0,0-8.726,44.826l19.606,90.792,2.657-.575-19.6-90.79a53.391,53.391,0,0,1,8.311-42.731l72.29-106.336Z" transform="translate(-1258.011 -633.751)" fill="#006669"/>
  <path id="Path_3872" data-name="Path 3872" d="M1659.056,657.891l-44.774,80.158c-7.434-3.822-14.77-7.84-21.975-11.909-16.165-9.132-32.186-18.885-47.608-29.226-5.574-3.739-11.154-7.589-16.481-11.674-1.56-1.2-3.117-2.423-4.608-3.708a75.937,75.937,0,0,1,6.48-4.136,63.628,63.628,0,0,1,20.819-7.714c14.284-2.4,28.75-4.188,43.144-5.792,18.77-2.092,37.593-3.81,56.419-5.322q4.291-.346,8.582-.675" transform="translate(-1358.007 -630.457)" fill="#00666a" fill-rule="evenodd"/>
  <path id="Path_3873" data-name="Path 3873" d="M1616.207,739.33l46.01-82.366-6.818.528-4.29.341c-9.238.741-18.634,1.548-28.246,2.448q-14.265,1.337-28.215,2.879c-7.141.8-14.345,1.644-21.64,2.6-7.248.953-14.458,2-21.578,3.2a58.7,58.7,0,0,0-10.639,2.872,71.5,71.5,0,0,0-10.632,5c-1.073.615-2.232,1.313-3.444,2.087-1.069.682-2.128,1.4-3.152,2.13l-1.4,1,1.3,1.124c.716.619,1.5,1.261,2.316,1.916l0,0c.788.63,1.575,1.242,2.356,1.841,2.686,2.06,5.427,4.054,8.189,6,2.715,1.911,5.526,3.822,8.36,5.723q11.614,7.787,23.573,15.1c7.912,4.847,15.976,9.577,24.126,14.182,3.662,2.068,7.31,4.1,10.916,6.058q5.573,3.027,11.1,5.879l1.167.6Zm41.171-79.266-42.9,76.8q-5.026-2.6-9.88-5.245-5.58-3.032-10.886-6.037-12.021-6.792-24.04-14.138-11.928-7.306-23.478-15.034c-2.739-1.838-5.507-3.722-8.306-5.692-2.75-1.936-5.464-3.911-8.105-5.935-.776-.6-1.548-1.2-2.3-1.8h0q-.441-.354-.9-.727.792-.537,1.592-1.047c1.072-.684,2.2-1.361,3.337-2.011a68.712,68.712,0,0,1,10.219-4.809,55.908,55.908,0,0,1,10.149-2.745c7.165-1.2,14.331-2.249,21.483-3.19,7.108-.935,14.334-1.784,21.587-2.593q14.223-1.582,28.161-2.877c9.2-.861,18.627-1.67,28.214-2.44Z" transform="translate(-1358.749 -631.08)" fill="#006669"/>
  <g id="Group_641" data-name="Group 641" transform="translate(537.116 20.681)">
    <path id="Path_3874" data-name="Path 3874" d="M1241.917,697c-4.068-20.323-7.609-37.845-8.682-43.15q6.806.105,13.658.273,7.634.183,15.322.446c9.512.328,19.077.749,28.688,1.329,9.572.577,19.123,1.309,28.612,2.257,7.041.7,14.249,1.52,21.462,2.591,7.166,1.063,14.284,2.373,21.152,4.061,8.238,2.026,16.419,4.531,24.488,7.358s16.046,5.984,23.864,9.313q13.122,5.585,25.869,11.881c8.514,4.185,16.94,8.586,25.27,13.137q10,5.465,19.863,11.242c.395.232.791.463,1.185.7C1394.241,704.8,1313.792,699.261,1241.917,697" transform="translate(-1233.235 -653.852)" fill="#e6e6e6" fill-rule="evenodd"/>
    <g id="Group_640" data-name="Group 640" transform="translate(0)" clip-path="url(#clip-path-5)">
      <rect id="Rectangle_26" data-name="Rectangle 26" width="249.433" height="64.587" transform="translate(0.001 -0.001)" fill="#e6e6e6"/>
    </g>
  </g>
  <g id="Group_643" data-name="Group 643" transform="translate(322.816 20.469)">
    <g id="Group_642" data-name="Group 642" transform="translate(0)" clip-path="url(#clip-path-6)">
      <rect id="Rectangle_27" data-name="Rectangle 27" width="184.056" height="42.443" transform="translate(0 0.001)" fill="url(#linear-gradient-2)"/>
    </g>
  </g>
  <g id="Group_645" data-name="Group 645" transform="translate(191.789 28.984)">
    <g id="Group_644" data-name="Group 644" transform="translate(0)" clip-path="url(#clip-path-7)">
      <rect id="Rectangle_28" data-name="Rectangle 28" width="106.841" height="30.431" transform="translate(0 0.001)" fill="url(#linear-gradient-3)"/>
    </g>
  </g>
  <path id="Path_3878" data-name="Path 3878" d="M1616.258,817.436a76.25,76.25,0,1,0,76.25,76.25,76.25,76.25,0,0,0-76.25-76.25" transform="translate(-1418.875 -523.247)" fill="#2f8080" fill-rule="evenodd"/>
  <path id="Path_3879" data-name="Path 3879" d="M1636.066,832.083a79.668,79.668,0,1,0,79.668,79.668,79.669,79.669,0,0,0-79.668-79.668m0-41.53a121.2,121.2,0,1,0,121.2,121.2A121.2,121.2,0,0,0,1636.066,790.553Z" transform="translate(-1441.596 -541.311)" fill="#195252" fill-rule="evenodd"/>
  <path id="Path_3880" data-name="Path 3880" d="M1619.375,832.675a62.385,62.385,0,1,0,62.385,62.385,62.384,62.384,0,0,0-62.385-62.385m0-17.283a79.668,79.668,0,1,0,79.668,79.668A79.669,79.669,0,0,0,1619.375,815.392Z" transform="translate(-1424.905 -524.62)" fill="#bbb" fill-rule="evenodd"/>
  <path id="Path_3881" data-name="Path 3881" d="M1615.115,828.415A62.385,62.385,0,1,0,1677.5,890.8a62.384,62.384,0,0,0-62.385-62.385m0-6.683a69.068,69.068,0,1,0,69.069,69.068A69.068,69.068,0,0,0,1615.114,821.732Z" transform="translate(-1420.645 -520.36)" fill="#a5a5a5" fill-rule="evenodd"/>
  <path id="Path_3882" data-name="Path 3882" d="M1602.572,865.9a29.766,29.766,0,0,0-6.735,4.9c-27.245-1.893-37.328-14.68-37.746-21.267-6.012,6.574-9.539,17.6-10.326,20.261-.925,2.613-4.549,13.61-3.546,22.461,4.208-5.084,19.877-9.507,43.03,4.959a29.38,29.38,0,0,0,2.573,7.922c-10.244,25.3-25.521,30.916-31.91,29.273,4.385,7.753,13.779,14.524,16.061,16.1,2.2,1.687,11.53,8.544,20.256,10.333-3.53-5.576-2.877-21.848,18.062-39.38a29.776,29.776,0,0,0,4.167.293,30.083,30.083,0,0,0,4.17-.291c20.938,17.531,21.59,33.8,18.061,39.378,8.726-1.789,18.057-8.646,20.256-10.333,2.282-1.573,11.675-8.345,16.061-16.1-6.39,1.643-21.667-3.976-31.909-29.273a29.517,29.517,0,0,0,2.573-7.922c23.154-14.466,38.822-10.044,43.03-4.959,1-8.851-2.623-19.848-3.546-22.461-.789-2.657-4.315-13.687-10.326-20.261-.418,6.588-10.5,19.375-37.748,21.267a29.687,29.687,0,0,0-6.735-4.9c-6.606-26.487,2.439-40.024,8.574-42.455-8.109-3.688-19.689-3.635-22.459-3.565-2.771-.07-14.351-.124-22.458,3.565,6.134,2.431,15.18,15.967,8.572,42.455" transform="translate(-1421.989 -521.614)" fill="#bbb" fill-rule="evenodd"/>
  <path id="Path_3883" data-name="Path 3883" d="M1590.6,858.211a8.076,8.076,0,1,0,8.077,8.076,8.076,8.076,0,0,0-8.077-8.076" transform="translate(-1396.132 -495.847)" fill="#a5a5a5" fill-rule="evenodd"/>
  <path id="Path_3884" data-name="Path 3884" d="M1588.751,850.529a3.471,3.471,0,1,0,3.471,3.471,3.471,3.471,0,0,0-3.471-3.471" transform="translate(-1394.282 -501.009)" fill="#1f5e5e" fill-rule="evenodd"/>
  <path id="Path_3885" data-name="Path 3885" d="M1582.125,860.14a3.472,3.472,0,1,0-2.23,4.372,3.471,3.471,0,0,0,2.23-4.372" transform="translate(-1367.755 -496.164)" fill="#1f5e5e" fill-rule="evenodd"/>
  <path id="Path_3886" data-name="Path 3886" d="M1584.658,875.685a3.471,3.471,0,1,0-4.851-.764,3.472,3.472,0,0,0,4.851.764" transform="translate(-1377.887 -488.323)" fill="#1f5e5e" fill-rule="evenodd"/>
  <path id="Path_3887" data-name="Path 3887" d="M1592.844,875.685a3.471,3.471,0,1,0-.764-4.849,3.469,3.469,0,0,0,.764,4.849" transform="translate(-1410.676 -488.323)" fill="#1f5e5e" fill-rule="evenodd"/>
  <path id="Path_3888" data-name="Path 3888" d="M1595.377,860.14a3.471,3.471,0,1,0,4.374-2.23,3.471,3.471,0,0,0-4.374,2.23" transform="translate(-1420.809 -496.164)" fill="#1f5e5e" fill-rule="evenodd"/>
  <path id="Path_3889" data-name="Path 3889" d="M1736.6,849.382c.03,7.684.3,16.385.3,26.813a17.181,17.181,0,0,1-17.148,17.148H1187.525a17.182,17.182,0,0,1-17.148-17.148c0-10.428.268-19.129.3-26.813Z" transform="translate(-845.255 -501.78)" fill="#0c4589" fill-rule="evenodd"/>
  <path id="Path_3890" data-name="Path 3890" d="M1642.552,822.426a197.7,197.7,0,0,1,1.274-33.61c7.929-24.347,23.306-46.989,69.541-61.646,0,0,13.971,21.172,12.963,21.172-75.558,20.338-54.925,66.092-83.778,74.084" transform="translate(-1623.837 -583.903)" fill="#d05050" fill-rule="evenodd"/>
  <path id="Path_3891" data-name="Path 3891" d="M1648.291,800.934q.376-6.17,1.124-12.119c7.929-24.347,23.306-46.989,69.541-61.646,0,0,1.291,1.956,3.058,4.677-64.73,17.93-57.421,54.789-73.722,69.088" transform="translate(-1629.426 -583.903)" fill="#ea8989" fill-rule="evenodd"/>
  <path id="Path_3892" data-name="Path 3892" d="M1027.633,725.773c7.139,4.218,19.841,10.833,31.58,16.447,10.032,4.8,19.371,8.868,23.971,10.1,1.478.4,6.392.662,13.974,1.073,25.083,1.361,79.8,4.329,131.506,18.046l.155-1.364c-51.962-13.785-106.347-18.027-131.524-19.392-7.394-.4-12.185-.66-13.409-.99-4.456-1.2-13.621-5.195-23.5-9.922-11.634-5.564-24.25-12.135-31.368-16.34Z" transform="translate(-98.51 -586.413)" fill="#0a6cb4"/>
  <path id="Path_3893" data-name="Path 3893" d="M1142.678,655.018c77.984,28.405,204.277,92.391,233.468,108.14q5.711.321,11.326.7c-10,5.763-39.634,13.291-61.281,5.581-24.6-8.761-145.232-92.659-205.245-109.942a82.411,82.411,0,0,1,21.732-4.476" transform="translate(-413.178 -632.387)" fill="#e6e6e6" fill-rule="evenodd"/>
  <path id="Path_3894" data-name="Path 3894" d="M1254.171,713.667c-15.551-7.325-35.951-13.78-42.659-6.546-10.96,11.818-11.09,37,2.546,39.2,6.052.978,19.328,3.053,32.05,2.488,19.855-.883,30.65-3.12,31.786-9.55.995-5.641-5.282-16.9-23.724-25.591" transform="translate(-441.797 -599.501)" fill="#013173" fill-rule="evenodd"/>
  <path id="Path_3895" data-name="Path 3895" d="M1097.888,809.358c-16.178-.179-54.322-1.516-61.53-5.619-7.8-4.441-26.646-28.086-69.616-38.049,3.819-3.23,15.824-10.895,29.338-14.359,41.336,10.946,80.8,28.738,101.808,58.027" transform="translate(134.23 -567.668)" fill="#ececec" fill-rule="evenodd"/>
  <path id="Path_3896" data-name="Path 3896" d="M1084.034,802.5c-16.178-.179-54.322-1.516-61.53-5.619-6.907-3.931-22.471-22.911-55.762-34.127,1.341-1.619,5.18-1.769,12.848.465,25.628,7.465,42.774,5.686,57,1.222,19.443,9.835,36.123,22.278,47.446,38.059" transform="translate(148.084 -560.808)" fill="#cfcbcb" fill-rule="evenodd"/>
  <path id="Path_3897" data-name="Path 3897" d="M1080.9,803.894c-9.013-.853-16.46-2.028-19.256-3.618-7.8-4.441-26.646-28.086-69.616-38.049a62.1,62.1,0,0,1,8.589-5.742c21.329,6.549,61.227,30.1,80.283,47.409" transform="translate(108.946 -564.204)" fill="#fff" fill-rule="evenodd"/>
  <path id="Path_3898" data-name="Path 3898" d="M960.424,760.317c13.041-.834,30.515-1.277,42.934-1.04a247.455,247.455,0,0,1,27.265,44.806c-3.727,0-8.765,0-9.293-.008l-1.271-.012c-13.627-19-35.013-33.154-59.636-43.745" transform="translate(212.058 -562.371)" fill="#0a6cb4" fill-rule="evenodd"/>
</svg>
