<svg version="1.1" viewBox="0 0 96 96" xmlns="http://www.w3.org/2000/svg" xmlns:xlink="http://www.w3.org/1999/xlink" id="Icons_City" overflow="hidden"><path d=" M 14 65 L 18 65 L 18 69 L 14 69 L 14 65 Z M 14 57 L 18 57 L 18 61 L 14 61 L 14 57 Z M 14 49 L 18 49 L 18 53 L 14 53 L 14 49 Z M 22 65 L 26 65 L 26 69 L 22 69 L 22 65 Z M 22 57 L 26 57 L 26 61 L 22 61 L 22 57 Z M 22 49 L 26 49 L 26 53 L 22 53 L 22 49 Z M 8 79 L 18 79 L 18 73 L 22 73 L 22 79 L 32 79 L 32 43 L 8 43 L 8 79 Z" stroke="none" stroke-width="1" stroke-dasharray="" stroke-dashoffset="1" fill="#3A328E" fill-opacity="1"/><path d=" M 42 65 L 46 65 L 46 69 L 42 69 L 42 65 Z M 42 57 L 46 57 L 46 61 L 42 61 L 42 57 Z M 50 65 L 54 65 L 54 69 L 50 69 L 50 65 Z M 50 57 L 54 57 L 54 61 L 50 61 L 50 57 Z M 36 79 L 46 79 L 46 73 L 50 73 L 50 79 L 60 79 L 60 51 L 36 51 L 36 79 Z" stroke="none" stroke-width="1" stroke-dasharray="" stroke-dashoffset="1" fill="#3A328E" fill-opacity="1"/><path d=" M 82 30 L 78 30 L 78 26 L 82 26 L 82 30 Z M 82 37 L 78 37 L 78 33 L 82 33 L 82 37 Z M 82 45 L 78 45 L 78 41 L 82 41 L 82 45 Z M 82 53 L 78 53 L 78 49 L 82 49 L 82 53 Z M 82 61 L 78 61 L 78 57 L 82 57 L 82 61 Z M 82 69 L 78 69 L 78 65 L 82 65 L 82 69 Z M 74 30 L 70 30 L 70 26 L 74 26 L 74 30 Z M 74 37 L 70 37 L 70 33 L 74 33 L 74 37 Z M 74 45 L 70 45 L 70 41 L 74 41 L 74 45 Z M 74 53 L 70 53 L 70 49 L 74 49 L 74 53 Z M 74 61 L 70 61 L 70 57 L 74 57 L 74 61 Z M 74 69 L 70 69 L 70 65 L 74 65 L 74 69 Z M 64 19 L 64 79 L 74 79 L 74 73 L 78 73 L 78 79 L 88 79 L 88 22 L 64 19 Z" stroke="none" stroke-width="1" stroke-dasharray="" stroke-dashoffset="1" fill="#3A328E" fill-opacity="1"/><path d=" M 36 31 L 40 31 L 40 35 L 36 35 L 36 31 Z M 36 23 L 40 23 L 40 27 L 36 27 L 36 23 Z M 32 27 L 28 27 L 28 23 L 32 23 L 32 27 Z M 32 35 L 28 35 L 28 31 L 32 31 L 32 35 Z M 36 47 L 46 47 L 46 17 L 22 17 L 22 39 L 36 39 L 36 47 Z" stroke="none" stroke-width="1" stroke-dasharray="" stroke-dashoffset="1" fill="#3A328E" fill-opacity="1"/></svg>