<svg xmlns="http://www.w3.org/2000/svg" width="25" height="25" viewBox="0 0 25 25">
  <defs>
    <style>
      .cls-1 {
        fill: #3c308c;
      }
    </style>
  </defs>
  <g id="clock" transform="translate(-10 -10)">
    <path id="Path_16" data-name="Path 16" class="cls-1" d="M22.5,33.026A10.526,10.526,0,1,1,33.026,22.5,10.557,10.557,0,0,1,22.5,33.026ZM22.5,10A12.5,12.5,0,1,0,35,22.5,12.494,12.494,0,0,0,22.5,10Z"/>
    <path id="Path_17" data-name="Path 17" class="cls-1" d="M47.316,28H46v6.579a.552.552,0,0,0,.2.461l4.638,4.638.921-.921-4.441-4.441Z" transform="translate(-24.158 -12.079)"/>
    <circle id="Ellipse_7" data-name="Ellipse 7" class="cls-1" cx="0.658" cy="0.658" r="0.658" transform="translate(21.842 13.289)"/>
    <circle id="Ellipse_8" data-name="Ellipse 8" class="cls-1" cx="0.658" cy="0.658" r="0.658" transform="translate(21.842 30.395)"/>
    <circle id="Ellipse_9" data-name="Ellipse 9" class="cls-1" cx="0.658" cy="0.658" r="0.658" transform="translate(13.289 21.842)"/>
    <circle id="Ellipse_10" data-name="Ellipse 10" class="cls-1" cx="0.658" cy="0.658" r="0.658" transform="translate(30.395 21.842)"/>
  </g>
</svg>
