<svg xmlns="http://www.w3.org/2000/svg" width="378.875" height="25" viewBox="0 0 378.875 25">
  <defs>
    <style>
      .cls-1, .cls-2 {
        fill: #fff;
      }

      .cls-2 {
        font-size: 15px;
        font-family: SegoeUI, Segoe UI;
        letter-spacing: 0.155em;
      }
    </style>
  </defs>
  <g id="Copyright" transform="translate(-132 -1014.56)">
    <g id="icon" transform="translate(-425 -23.44)">
      <path id="socicon-fb" class="cls-1" d="M12.5,0A12.5,12.5,0,1,0,25,12.5,12.519,12.519,0,0,0,12.5,0Zm4.611,6.778H15.778A1.575,1.575,0,0,0,14,8.444v2h3l-.5,3.111H14v7.556H10.611V13.556H7.889V10.444h2.722V8.056a3.811,3.811,0,0,1,4.111-4.167,15.441,15.441,0,0,1,2.389.222Z" transform="translate(792.469 1038)"/>
      <g id="socicon-ig" transform="translate(871.406 1038)">
        <path id="Path_25" data-name="Path 25" class="cls-1" d="M12.5,0A12.5,12.5,0,1,0,25,12.5,12.519,12.519,0,0,0,12.5,0Zm6.889,15.389a4.171,4.171,0,0,1-1.111,2.889,4.022,4.022,0,0,1-2.889,1.111c-1.167.056-4.611.056-5.722,0a4.171,4.171,0,0,1-2.889-1.111,4.171,4.171,0,0,1-1.111-2.889c-.056-1.167-.056-4.611,0-5.722A4.171,4.171,0,0,1,6.778,6.778,4.171,4.171,0,0,1,9.667,5.667c1.167-.056,4.611-.056,5.722,0a4.171,4.171,0,0,1,2.889,1.111,4.022,4.022,0,0,1,1.111,2.889C19.444,10.778,19.444,14.222,19.389,15.389Z" transform="translate(0 0)"/>
        <circle id="Ellipse_39" data-name="Ellipse 39" class="cls-1" cx="2.333" cy="2.333" r="2.333" transform="translate(10.167 10.167)"/>
        <path id="Path_26" data-name="Path 26" class="cls-1" d="M23.255,13.8a2.416,2.416,0,0,0-1.333-1.333,16.7,16.7,0,0,0-4.111-.278,14.52,14.52,0,0,0-4.111.278A2.416,2.416,0,0,0,12.366,13.8a16.7,16.7,0,0,0-.278,4.111,14.52,14.52,0,0,0,.278,4.111A2.416,2.416,0,0,0,13.7,23.355a16.7,16.7,0,0,0,4.111.278,14.52,14.52,0,0,0,4.111-.278,2.416,2.416,0,0,0,1.333-1.333,14.381,14.381,0,0,0,.278-4.111A14.52,14.52,0,0,0,23.255,13.8Zm-5.389,7.667a3.556,3.556,0,1,1,3.556-3.556A3.545,3.545,0,0,1,17.866,21.466Zm3.722-6.444a.833.833,0,1,1,.833-.833A.818.818,0,0,1,21.588,15.022Z" transform="translate(-5.366 -5.41)"/>
      </g>
      <path id="socicon-li" class="cls-1" d="M12.5,0A12.5,12.5,0,1,0,25,12.5,12.519,12.519,0,0,0,12.5,0ZM8.778,18.333H5.889V9.056H8.778ZM7.333,7.778A1.671,1.671,0,0,1,5.667,6.111,1.667,1.667,0,1,1,9,6.111,1.671,1.671,0,0,1,7.333,7.778ZM19.556,18.333H16.667v-4.5c0-1.056,0-2.444-1.5-2.444s-1.722,1.167-1.722,2.389v4.556H10.556V9.056h2.778v1.278h0a3.056,3.056,0,0,1,2.722-1.5c2.889,0,3.444,1.944,3.444,4.389v5.111Z" transform="translate(910.875 1038)"/>
      <path id="socicon-tw" class="cls-1" d="M12.5,0A12.5,12.5,0,1,0,25,12.5,12.519,12.519,0,0,0,12.5,0Zm6.056,9.5v.389a8.76,8.76,0,0,1-8.889,8.722,8.473,8.473,0,0,1-4.722-1.444,2.49,2.49,0,0,0,.667.056A6.4,6.4,0,0,0,9.5,15.944a3.121,3.121,0,0,1-2.889-2.167,2.083,2.083,0,0,0,.611.056,4.288,4.288,0,0,0,.833-.111,3.053,3.053,0,0,1-2.444-3.056v-.056A2.887,2.887,0,0,0,7,11,2.938,2.938,0,0,1,5.667,8.389a2.987,2.987,0,0,1,.444-1.556,8.847,8.847,0,0,0,6.333,3.333,2.935,2.935,0,0,1-.056-.722A3.025,3.025,0,0,1,15.5,6.389a3.2,3.2,0,0,1,2.278,1,6.154,6.154,0,0,0,2-.722,2.768,2.768,0,0,1-1.389,1.667,6.423,6.423,0,0,0,1.778-.444A8.845,8.845,0,0,1,18.556,9.5Z" transform="translate(831.937 1038)"/>
      <g id="socicon-yt" transform="translate(753 1038)">
        <path id="Path_27" data-name="Path 27" class="cls-1" d="M19.4,23.044V18.1l4.333,2.444-4.333,2.5Z" transform="translate(-8.622 -8.044)"/>
        <path id="Path_28" data-name="Path 28" class="cls-1" d="M12.5,0A12.5,12.5,0,1,0,25,12.5,12.519,12.519,0,0,0,12.5,0Zm7.944,16.556A2,2,0,0,1,19,18a52.126,52.126,0,0,1-6.5.333A52.126,52.126,0,0,1,6,18a1.918,1.918,0,0,1-1.444-1.444,22.4,22.4,0,0,1-.333-4,22.4,22.4,0,0,1,.333-4A2.177,2.177,0,0,1,6,7.056a44.751,44.751,0,0,1,6.5-.389A52.126,52.126,0,0,1,19,7a1.987,1.987,0,0,1,1.444,1.5,22.4,22.4,0,0,1,.333,4A23.253,23.253,0,0,1,20.444,16.556Z" transform="translate(0 0)"/>
      </g>
    </g>
    <text id="copyright-2" data-name="copyright" class="cls-2" transform="translate(132 1031)"><tspan x="0" y="0">© 2021 Blue SHARK</tspan></text>
  </g>
</svg>
