<svg xmlns="http://www.w3.org/2000/svg" width="29.093" height="34" viewBox="0 0 29.093 34">
  <defs>
    <style>
      .cls-1 {
        fill: #3c308c;
      }
    </style>
  </defs>
  <path id="gender" class="cls-1" d="M398.975,767.972c.853.244,1.705.49,2.559.73.648.182,1.3.347,1.948.543a.493.493,0,0,1,.289.285c.417,1.465.819,2.933,1.217,4.4a1.212,1.212,0,0,1-.815,1.55,1.264,1.264,0,0,1-1.523-.893c-.089-.3-.152-.6-.243-.894a.607.607,0,0,0-1.077-.279q-1.7,1.682-3.381,3.379a.579.579,0,0,0-.089.836,10.2,10.2,0,0,1,1.671,4.488.849.849,0,0,0,.4.514.526.526,0,0,0,.658-.157c.4-.415.8-.832,1.2-1.24a1.217,1.217,0,1,1,1.755,1.674q-3.311,3.471-6.626,6.937a9.555,9.555,0,0,1-5.209,2.833.648.648,0,0,0-.62.752v2.356c0,.5.232.722.738.729.365.005.73,0,1.1,0a1.205,1.205,0,0,1,1.209,1.163,1.262,1.262,0,0,1-1.184,1.24c-.375.019-.753,0-1.129.008a.645.645,0,0,0-.73.737c0,.254-.019.51,0,.762a1.36,1.36,0,0,1-.939,1.542h-.6l-.291-.194a1.247,1.247,0,0,1-.594-1.052c-.008-.365,0-.731-.005-1.1a.63.63,0,0,0-.7-.7c-.376-.008-.753,0-1.129,0a1.193,1.193,0,0,1-1.205-1.161,1.249,1.249,0,0,1,1.173-1.247c.375-.018.753,0,1.129-.007.491-.007.725-.224.73-.7q.013-1.211,0-2.423a.645.645,0,0,0-.6-.708,9.545,9.545,0,0,1-7.7-7.643c-.064-.266-.083-.545-.123-.818a.621.621,0,0,0-1.117-.352c-.385.413-.781.815-1.171,1.222a1.061,1.061,0,0,1-1.478.218,1.218,1.218,0,0,1-.339-1.622,1.688,1.688,0,0,1,.222-.287c2.145-2.3,4.281-4.6,6.437-6.886a9.479,9.479,0,0,1,7.185-3.085,9.358,9.358,0,0,1,5.241,1.617c.545.362.708.346,1.171-.12l3.146-3.145c.522-.522.39-1.009-.329-1.208-.255-.071-.514-.13-.767-.207a1.253,1.253,0,0,1-.924-1.23,1.15,1.15,0,0,1,.908-1.115c.016-.005.025-.032.036-.049Zm-1.817,15.166a7.291,7.291,0,1,0-7.226,7.292A7.29,7.29,0,0,0,397.158,783.139Z" transform="translate(-375.948 -767.97)"/>
</svg>
