<svg xmlns="http://www.w3.org/2000/svg" width="12.222" height="25" viewBox="0 0 12.222 25">
  <defs>
    <style>
      .cls-1 {
        fill: #3a328e;
      }
    </style>
  </defs>
  <g id="ghe" transform="translate(-26 -3)">
    <circle id="Ellipse_14" data-name="Ellipse 14" class="cls-1" cx="2.222" cy="2.222" r="2.222" transform="translate(29.889 3)"/>
    <path id="Path_24" data-name="Path 24" class="cls-1" d="M38.167,29.667l-1.556-6.611a1.324,1.324,0,0,0-.333-.611,6.686,6.686,0,0,0-2.333-1.222A10.327,10.327,0,0,0,32.111,21a6.985,6.985,0,0,0-1.833.278A5.879,5.879,0,0,0,27.944,22.5a1.324,1.324,0,0,0-.333.611l-1.556,6.611A2.406,2.406,0,0,0,26,30a1.114,1.114,0,0,0,1.111,1.111,1.133,1.133,0,0,0,1.056-.833l1.167-4.833V41h2.222V31h1.111V41h2.222V25.389l1.167,4.833a1.133,1.133,0,0,0,1.056.833,1.114,1.114,0,0,0,1.111-1.111A2.406,2.406,0,0,0,38.167,29.667Z" transform="translate(0 -13)"/>
  </g>
</svg>
