<svg xmlns="http://www.w3.org/2000/svg" xmlns:xlink="http://www.w3.org/1999/xlink" width="118" height="118" viewBox="0 0 118 118">
  <defs>
    <style>
      .cls-1 {
        fill: #e3eef9;
      }

      .cls-2 {
        fill: url(#linear-gradient);
      }

      .cls-3 {
        fill: #0476d9;
      }

      .cls-4 {
        filter: url(#boderman);
      }
    </style>
    <filter id="boderman" x="0" y="0" width="118" height="118" filterUnits="userSpaceOnUse">
      <feOffset dx="3" dy="3" input="SourceAlpha"/>
      <feGaussianBlur stdDeviation="3" result="blur"/>
      <feFlood flood-opacity="0.161"/>
      <feComposite operator="in" in2="blur"/>
      <feComposite in="SourceGraphic"/>
    </filter>
    <linearGradient id="linear-gradient" x1="0.5" y1="1" x2="1" y2="-0.238" gradientUnits="objectBoundingBox">
      <stop offset="0" stop-color="#3c308c"/>
      <stop offset="1" stop-color="#0476d9"/>
    </linearGradient>
  </defs>
  <g id="human" transform="translate(-909 -266)">
    <g class="cls-4" transform="matrix(1, 0, 0, 1, 909, 266)">
      <circle id="boderman-2" data-name="boderman" class="cls-1" cx="50" cy="50" r="50" transform="translate(6 6)"/>
    </g>
    <g id="icon" transform="translate(939 290.033)">
      <g id="Layer_1" data-name="Layer 1" transform="translate(0 -0.033)">
        <path id="Path_1" data-name="Path 1" class="cls-2" d="M.018,116.345l11.394-4.14L.019,108.057,4.812,106.3c-.373-.149-.595-.235-.827-.318-1.179-.43-2.349-.864-3.539-1.282A.537.537,0,0,1,0,104.117q.021-8.81.012-17.62a3.027,3.027,0,0,1,.04-.327H.69c2.992.025,5.988-.034,8.974.109a34.328,34.328,0,0,1,5.665.77,52.218,52.218,0,0,1,7.265,1.969A44.313,44.313,0,0,1,46.13,109.058a53.317,53.317,0,0,1,3.131,6.691,37.638,37.638,0,0,1,2.068,7.658,54.37,54.37,0,0,1,.657,7.1,7.478,7.478,0,0,1-1,4.618,6.6,6.6,0,0,1-5.5,3.192c-1.256.045-2.514.024-3.774.024H12.819c-5.554-.009-9.408-2.7-11.759-7.631a10.744,10.744,0,0,1-1.041-4.736C.031,122.782.018,119.6.018,116.345Zm25.963-4.156c-.236.1-.387.171-.543.227l-8.306,3.02c-3.4,1.234-6.8,2.464-10.185,3.717-.207.076-.485.345-.486.526-.01,2.275-.085,4.557.074,6.823a6.1,6.1,0,0,0,5.9,5.438h3.71l28.507-.009c.892,0,.953-.028.916-.9-.058-1.372-.149-2.743-.253-4.113a32.266,32.266,0,0,0-1.833-8.312A38.621,38.621,0,0,0,26.347,97.842a36.071,36.071,0,0,0-10.755-4.254c-1.471-.326-2.974-.5-4.473-.7-.788-.1-1.587-.126-2.379-.177-.743-.048-1.487-.082-2.23-.12a1.785,1.785,0,0,0-.067.285q0,4.128-.01,8.258c0,.4.214.5.52.61q5.83,2.111,11.653,4.244c.219.079.422.2.726.348l-4.7,1.716Z" transform="translate(0 -73.352)"/>
        <path id="Path_2" data-name="Path 2" class="cls-3" d="M.4-.028H.935c7.962,0,15.925-.018,23.887.015A22.133,22.133,0,0,1,31.96,1.154,24.535,24.535,0,0,1,48.392,18.41a23.123,23.123,0,0,1,.843,6.5v8.327c0,.149-.031.287-.058.523-.763-1.163-1.419-2.284-2.193-3.314-1.248-1.662-2.581-3.261-3.857-4.907a1.532,1.532,0,0,1-.329-.852A18.464,18.464,0,0,0,27.645,6.663a17.149,17.149,0,0,0-3.007-.3c-5.814-.018-11.629,0-17.445,0H6.748V9.508H.4Z" transform="translate(-0.341 0.033)"/>
      </g>
    </g>
  </g>
</svg>
