<svg id="Layer_1" data-name="Layer 1" xmlns="http://www.w3.org/2000/svg" xmlns:xlink="http://www.w3.org/1999/xlink" viewBox="0 0 162 68"><defs><style>.cls-1,.cls-2,.cls-3,.cls-4{isolation:isolate;}.cls-2{font-size:33px;font-family:Finesse-Flair, Finesse;letter-spacing:0.15em;}.cls-2,.cls-6{fill:#0476d9;}.cls-3,.cls-4{font-size:43px;font-family:Finesse-Roman, Finesse;}.cls-3{fill:#3c308c;}.cls-4{fill:none;stroke:#3c308c;}.cls-5{fill:url(#linear-gradient);}</style><linearGradient id="linear-gradient" x1="-860.82" y1="564.4" x2="-860.32" y2="565.64" gradientTransform="matrix(52.03, 0, 0, -52.18, 44806.46, 29509.96)" gradientUnits="userSpaceOnUse"><stop offset="0" stop-color="#3c308c"/><stop offset="1" stop-color="#0476d9"/></linearGradient></defs><g id="b"><g class="cls-1"><text class="cls-2" transform="translate(61.48 27)">Blue</text></g><g class="cls-1"><text class="cls-3" transform="translate(58.6 66.16)">SHARK</text><text class="cls-4" transform="translate(58.6 66.16)">SHARK</text></g><path class="cls-5" d="M0,44l11.39-4.14L0,35.7,4.81,34c-.37-.15-.59-.24-.83-.32-1.17-.43-2.34-.86-3.53-1.28A.54.54,0,0,1,0,31.76Q0,23,0,14.14c0-.1,0-.21,0-.32H.69c3,0,6,0,9,.11a33.76,33.76,0,0,1,5.67.77,52.27,52.27,0,0,1,7.26,2,44.28,44.28,0,0,1,23.54,20,52.87,52.87,0,0,1,3.13,6.69,37.64,37.64,0,0,1,2.07,7.65A56.43,56.43,0,0,1,52,58.16a7.52,7.52,0,0,1-1,4.61,6.63,6.63,0,0,1-5.5,3.2c-1.26,0-2.52,0-3.78,0H12.82c-5.55,0-9.41-2.7-11.76-7.63a10.78,10.78,0,0,1-1-4.74C0,50.43,0,47.25,0,44Zm26-4.15c-.24.1-.39.17-.54.22l-8.31,3c-3.4,1.24-6.8,2.47-10.18,3.72-.21.08-.49.35-.49.53,0,2.27-.08,4.55.07,6.82a6.11,6.11,0,0,0,5.9,5.44H44.65c.89,0,1,0,.92-.9-.06-1.37-.15-2.74-.25-4.11a32.53,32.53,0,0,0-1.84-8.32A38.61,38.61,0,0,0,26.35,25.49a36.09,36.09,0,0,0-10.76-4.25c-1.47-.33-3-.5-4.47-.7-.79-.1-1.59-.13-2.38-.18s-1.49-.08-2.23-.12a2.86,2.86,0,0,0-.07.28q0,4.14,0,8.26c0,.4.22.5.52.61q5.84,2.12,11.66,4.25c.21.08.42.2.72.34l-4.7,1.72Z"/><path class="cls-6" d="M.06,1H.59c8,0,15.93,0,23.89,0a21.94,21.94,0,0,1,7.14,1.17A24.52,24.52,0,0,1,48.05,19.44a23.07,23.07,0,0,1,.84,6.5v8.33c0,.15,0,.29,0,.52-.77-1.16-1.42-2.28-2.2-3.31-1.25-1.66-2.58-3.26-3.85-4.91a1.47,1.47,0,0,1-.33-.85A18.46,18.46,0,0,0,27.3,7.7a16.77,16.77,0,0,0-3-.3c-5.82,0-11.63,0-17.45,0H6.41v3.14H.06Z"/></g></svg>