<svg xmlns="http://www.w3.org/2000/svg" xmlns:xlink="http://www.w3.org/1999/xlink" viewBox="0 0 158.93 65.1"><defs><linearGradient id="a" x1="-502.83" y1="974.31" x2="-502.33" y2="975.55" gradientTransform="matrix(52.03, 0, 0, -52.18, 26179.63, 50896.48)" gradientUnits="userSpaceOnUse"><stop offset="0" stop-color="#3c308c"/><stop offset="1" stop-color="#0476d9"/></linearGradient></defs><path d="M0,43l11.39-4.14L0,34.71,4.81,33c-.37-.15-.59-.24-.83-.32-1.17-.43-2.34-.86-3.53-1.28A.54.54,0,0,1,0,30.76Q0,22,0,13.14c0-.1,0-.21,0-.32H.69c3,0,6,0,9,.11a33.76,33.76,0,0,1,5.67.77,52.27,52.27,0,0,1,7.26,2,44.28,44.28,0,0,1,23.54,20,52.87,52.87,0,0,1,3.13,6.69,37.55,37.55,0,0,1,2.07,7.66,56.1,56.1,0,0,1,.66,7.1,7.52,7.52,0,0,1-1,4.61,6.63,6.63,0,0,1-5.5,3.2c-1.26,0-2.52,0-3.78,0H12.82c-5.55,0-9.41-2.7-11.76-7.63a10.78,10.78,0,0,1-1-4.74C0,49.43,0,46.25,0,43Zm26-4.15c-.24.1-.39.17-.54.22l-8.31,3c-3.4,1.24-6.8,2.47-10.18,3.72-.21.08-.49.35-.49.53,0,2.27-.08,4.55.07,6.82a6.11,6.11,0,0,0,5.9,5.44H44.65c.89,0,1,0,.92-.9-.06-1.37-.15-2.74-.25-4.11a32.53,32.53,0,0,0-1.84-8.32A38.61,38.61,0,0,0,26.35,24.49a36.09,36.09,0,0,0-10.76-4.25c-1.47-.33-3-.5-4.47-.7-.79-.1-1.59-.13-2.38-.18s-1.49-.08-2.23-.12a2.86,2.86,0,0,0-.07.28q0,4.14,0,8.26c0,.4.22.5.52.61q5.84,2.12,11.66,4.25c.21.08.42.2.72.34l-4.7,1.72Z" transform="translate(0 0)" style="fill:url(#a)"/><path d="M.06,0H.59c8,0,15.93,0,23.89,0a21.94,21.94,0,0,1,7.14,1.17A24.52,24.52,0,0,1,48.05,18.44a23.07,23.07,0,0,1,.84,6.5v8.33c0,.15,0,.29,0,.52-.77-1.16-1.42-2.28-2.2-3.31-1.25-1.66-2.58-3.26-3.85-4.91a1.47,1.47,0,0,1-.33-.85A18.46,18.46,0,0,0,27.3,6.7a16.77,16.77,0,0,0-3-.3c-5.82,0-11.63,0-17.45,0H6.41V9.54H.06Z" transform="translate(0 0)" style="fill:#0476d9"/><path d="M79.16,29.74h6.78V40h3.64V29.76h6.83V64.33h-6.8V45.87H85.94V64.32H79.11Z" transform="translate(0 0)" style="fill:#3e328d"/><path d="M126.08,45.32v19H119.2V29.78h.1c3.11,0,6.22,0,9.31.21a8.89,8.89,0,0,1,5.6,2.17,6.77,6.77,0,0,1,.52,9.16c-.46.57-.91,1.19-1.33,1.69,2.16,1.36,3,3.7,3,6.43,0,2.27-.26,4.54-.35,6.82A20.46,20.46,0,0,0,137,64a1.59,1.59,0,0,0,.1.37c-1.32,0-2.62.07-3.89,0a3.75,3.75,0,0,1-3.35-2.46,12.34,12.34,0,0,1-.72-5.42c.08-2.37.25-4.75.37-7.12a5.68,5.68,0,0,0,0-1,3,3,0,0,0-2.15-2.57A4.44,4.44,0,0,0,126.08,45.32Zm0-10.62v6.12c2.19-.24,3.5-1.58,3.45-3.46,0-1.67-1.15-2.56-3.4-2.66Z" transform="translate(0 0)" style="fill:#3d318c"/><path d="M116.22,64.34h-6.85V48.72h-3v15.6H99.5V41.2a20.05,20.05,0,0,1,1.19-7.4,6.92,6.92,0,0,1,6.83-4.66,8.49,8.49,0,0,1,4.75,1.12,8,8,0,0,1,3.29,5.17,29,29,0,0,1,.69,7v21.5Zm-9.84-21.26h3.07c-.13-2.15-.24-4.26-.4-6.36a6.81,6.81,0,0,0-.45-1.83c-.13-.33-.49-.57-.74-.84a7.38,7.38,0,0,0-.76.82,2.06,2.06,0,0,0-.25.72,33,33,0,0,0-.47,7.49Z" transform="translate(0 0)" style="fill:#3d318c"/><path d="M157.63,29.7a2.81,2.81,0,0,1-.1.31,7,7,0,0,0-1.08,4.92q.15,3.14,0,6.27a5.64,5.64,0,0,1-2.63,4.5.75.75,0,0,0-.12.63c.85,3,1.71,5.94,2.58,8.88S158,61,158.82,63.84a2.43,2.43,0,0,0,.11.49h-7c-.46-1.65-.94-3.3-1.4-4.94Q148.75,53.14,147,46.9c-.09-.29-.13-.6-.62-.44V64.28h-6.83V29.77h6.82V42.35A2.88,2.88,0,0,0,149.63,40a2.4,2.4,0,0,0,0-.37c0-1.79-.1-3.57-.15-5.34a6.89,6.89,0,0,1,.07-1.36A3.31,3.31,0,0,1,152.11,30,24.9,24.9,0,0,1,157.63,29.7Z" transform="translate(0 0)" style="fill:#3d318c"/><path d="M69.79,40.69V35.94a3.72,3.72,0,0,0-.48-1.38A1.05,1.05,0,0,0,68.12,34a1,1,0,0,0-.9.83,5.33,5.33,0,0,0,.17,3.37,13.86,13.86,0,0,0,3.21,4.75c1,1,2,2,2.91,3a13.43,13.43,0,0,1,3.43,9.88,10.43,10.43,0,0,1-1.63,5.67A7.79,7.79,0,0,1,67.58,65c-4.62-.39-7.43-3.65-8.1-8.17a17.63,17.63,0,0,1-.19-2.61,3.87,3.87,0,0,1,3.39-4.3l.3,0c1.19-.17,2.28-.14,3.57-.2-.16.89-.33,1.67-.44,2.46a12.28,12.28,0,0,0,.21,5.46,5.08,5.08,0,0,0,1,1.9,1.36,1.36,0,0,0,1.88.39,1.33,1.33,0,0,0,.59-.93,9.51,9.51,0,0,0,.11-4.65,13.45,13.45,0,0,0-3.71-6.64,26.38,26.38,0,0,1-3.94-5.11,11.49,11.49,0,0,1-1.52-7.47,7,7,0,0,1,6.8-6,8.11,8.11,0,0,1,6.57,2.1,7.7,7.7,0,0,1,2.51,6.1,3.08,3.08,0,0,1-2.83,3.22,6.16,6.16,0,0,1-1.28.17C71.52,40.71,70.57,40.69,69.79,40.69Z" transform="translate(0 0)" style="fill:#3d318c"/><path d="M66.44,1.1,65,1.29c1.19-1.48,4.88-1.8,5.62.36A16.4,16.4,0,0,1,73.7.24a3.93,3.93,0,0,1,4.66,3,3.57,3.57,0,0,1,.09.8,7.3,7.3,0,0,1-3.57,7.12,10.19,10.19,0,0,1,1.3,1.06,5.21,5.21,0,0,1,1,4.24,12.39,12.39,0,0,1-3.17,7.27,6.83,6.83,0,0,1-6.38,2.38,3.57,3.57,0,0,1-3-2.51,12.05,12.05,0,0,1-.51-5.33c.5-4.29,1.08-8.58,1.65-12.87C66,4,66.22,2.59,66.44,1.1Zm2.87,23.55a4.1,4.1,0,0,0,.58-.67,25.42,25.42,0,0,0,1.38-2.38,13,13,0,0,0,1.61-6.78,2.38,2.38,0,0,0-3.07-2.38.62.62,0,0,0-.62.62h0c-.16,1.39-.42,2.78-.54,4.17-.15,1.83-.23,3.66-.28,5.5A2.28,2.28,0,0,0,69.31,24.65Zm1.32-21.8c-.39,2.82-.79,5.62-1.19,8.42-.59,4.19,0,.07,0,.11a1.89,1.89,0,0,0,.34-.09A6.48,6.48,0,0,0,74,5.82c.4-2.28-1.13-3.55-3.37-3Z" transform="translate(0 0)" style="fill:#0677d9"/><path d="M89.06,25c1.18-1.89,2.15-3.66,2-5.87l-1.19.25a2.82,2.82,0,0,1,3.17-1.08,1.56,1.56,0,0,1,1,1.59,5.43,5.43,0,0,1-.92,3.08,6.09,6.09,0,0,1-5.72,3.27,3.61,3.61,0,0,1-3.73-3.84,42,42,0,0,1,.49-5.13c.43-3.26.9-6.5,1.4-9.74a22.76,22.76,0,0,1,.73-3.25C87.31,1.1,89.28,0,92.63.16,95.26.31,96.71,2,96.69,4.68a9.81,9.81,0,0,1-3.56,7.73,4.22,4.22,0,0,1-4.24,1c-.3,3.11-1.19,6.16-.94,9.31a4.71,4.71,0,0,0,.37,1.43C88.46,24.43,88.77,24.63,89.06,25ZM89,12.79c.41-.09.76,0,.92-.22a10.14,10.14,0,0,0,2.93-9.5,2.94,2.94,0,0,0-1.19-1.89C89.67,4.79,89.78,8.77,89,12.79Z" transform="translate(0 0)" style="fill:#0777d9"/><path d="M111.76,9.08a3.32,3.32,0,0,0,4.15,0c-.74,5.39-1.48,10.69-2.23,16l.95-.19a3,3,0,0,1-2.81,1.3,2.17,2.17,0,0,1-2.12-1.77c-.56.33-1.08.7-1.64,1a5.26,5.26,0,0,1-3.19.74,3.31,3.31,0,0,1-3.06-3.55h0a37.29,37.29,0,0,1,.38-4.84c.3-2.37.67-4.65,1-7v-.64l-.94.22a3,3,0,0,1,3.18-1.26,2.08,2.08,0,0,1,1.82,2.29,2.59,2.59,0,0,1-.09.4c-.27,2.05-.59,4.11-.87,6.16a28.25,28.25,0,0,0-.29,3.31c0,1.73.74,2.37,2.48,2.18,1.19-.14,1.27-.24,1.44-1.45q.78-5.8,1.61-11.63A11.07,11.07,0,0,0,111.76,9.08Z" transform="translate(0 0)" style="fill:#0777d9"/><path d="M130.76,20l-1.18.24a1.59,1.59,0,0,1,.28-.36,3.64,3.64,0,0,1,3-.92,2,2,0,0,1,1.76,2.22,2,2,0,0,1-.18.64,5.5,5.5,0,0,1-1,1.72A7.42,7.42,0,0,1,128,26.2,4.9,4.9,0,0,1,122.46,22a1.5,1.5,0,0,1,0-.2,12.13,12.13,0,0,1,2.37-9.69,7.3,7.3,0,0,1,7.13-2.91,3.82,3.82,0,0,1,2.67,6.28,5.55,5.55,0,0,1-2.79,2,5,5,0,0,1-5-1.07,9.61,9.61,0,0,0,.46,7,5.3,5.3,0,0,0,1.34,1.29.46.46,0,0,0,.44-.08A9.29,9.29,0,0,0,130.76,20ZM127,16.11a2.9,2.9,0,0,0,4-1,4,4,0,0,0,.26-.56,3.25,3.25,0,0,0-1.69-4.09A16.31,16.31,0,0,0,127,16.11Z" transform="translate(0 0)" style="fill:#0777d9"/></svg>