<svg xmlns="http://www.w3.org/2000/svg" xmlns:xlink="http://www.w3.org/1999/xlink" width="91" height="91" viewBox="0 0 91 91"><defs><style>.a{clip-path:url(#b);}.b{fill:#2793f2;}.c,.d{fill:none;stroke-linecap:round;stroke-linejoin:round;stroke-width:3px;}.c{stroke:#fff;}.d{stroke:#fffcfc;}</style><clipPath id="b"><rect width="91" height="91"/></clipPath></defs><g id="a" class="a"><circle class="b" cx="45" cy="45" r="45" transform="translate(0.5 0.5)"/><path class="c" d="M.837,3H0A18.52,18.52,0,0,1,9.946,0a18.155,18.155,0,0,1,8.5,2.166,17.759,17.759,0,0,1,17,0A18.149,18.149,0,0,1,43.946,0,18.52,18.52,0,0,1,53.89,3l-.834,0a17.806,17.806,0,0,0-17.609-.333,17.759,17.759,0,0,0-17,0A18.144,18.144,0,0,0,9.946.5,18.291,18.291,0,0,0,.837,3Z" transform="translate(18.5 53.5)"/><path class="c" d="M.837,3H0A18.52,18.52,0,0,1,9.946,0a18.155,18.155,0,0,1,8.5,2.166,17.759,17.759,0,0,1,17,0A18.149,18.149,0,0,1,43.946,0,18.52,18.52,0,0,1,53.89,3l-.834,0a17.806,17.806,0,0,0-17.609-.333,17.759,17.759,0,0,0-17,0A18.144,18.144,0,0,0,9.946.5,18.291,18.291,0,0,0,.837,3Z" transform="translate(18.5 44.5)"/><path class="d" d="M.837,3H0A18.52,18.52,0,0,1,9.946,0a18.155,18.155,0,0,1,8.5,2.166,17.759,17.759,0,0,1,17,0A18.149,18.149,0,0,1,43.946,0,18.52,18.52,0,0,1,53.89,3l-.834,0a17.806,17.806,0,0,0-17.609-.333,17.759,17.759,0,0,0-17,0A18.144,18.144,0,0,0,9.946.5,18.291,18.291,0,0,0,.837,3Z" transform="translate(18.5 34.5)"/></g></svg>