<svg xmlns="http://www.w3.org/2000/svg" xmlns:xlink="http://www.w3.org/1999/xlink" width="91" height="91" viewBox="0 0 91 91"><defs><style>.a{clip-path:url(#b);}.b{fill:#2793f2;}.c,.d{fill:none;stroke-linecap:round;stroke-linejoin:round;stroke-width:3px;}.c{stroke:#fff;}.d{stroke:#fffcfc;}.e{fill:#fff;}.f,.g{stroke:none;}.g{fill:#2793f2;}</style><clipPath id="b"><rect width="91" height="91"/></clipPath></defs><g id="a" class="a"><circle class="b" cx="45" cy="45" r="45" transform="translate(0.5 0.5)"/><path class="c" d="M.837,3H0A18.52,18.52,0,0,1,9.946,0a18.155,18.155,0,0,1,8.5,2.166,17.759,17.759,0,0,1,17,0A18.149,18.149,0,0,1,43.946,0,18.52,18.52,0,0,1,53.89,3l-.834,0a17.806,17.806,0,0,0-17.609-.333,17.759,17.759,0,0,0-17,0A18.144,18.144,0,0,0,9.946.5,18.291,18.291,0,0,0,.837,3Z" transform="translate(18.5 44.5)"/><path class="d" d="M.837,3H0A18.52,18.52,0,0,1,9.946,0a18.155,18.155,0,0,1,8.5,2.166,17.759,17.759,0,0,1,17,0A18.149,18.149,0,0,1,43.946,0,18.52,18.52,0,0,1,53.89,3h-.834a17.806,17.806,0,0,0-17.609-.333,17.759,17.759,0,0,0-17,0A18.144,18.144,0,0,0,9.946.5,18.291,18.291,0,0,0,.837,3Z" transform="translate(18.5 34.5)"/><g class="e" transform="translate(59.722 47.733) rotate(180)"><path class="f" d="M 30.57621192932129 20.34066963195801 L 27.25318145751953 19.37366104125977 C 18.09318161010742 16.70807075500488 8.703591346740723 10.89510059356689 0.8140611052513123 3.005560636520386 C 0.1669311225414276 2.358430624008179 -0.4766988754272461 1.690710544586182 -1.098928928375244 1.020960569381714 L -3.44101881980896 -1.499999403953552 L 1.123046899920155e-06 -1.499999403953552 L 23.82123184204102 -1.499999403953552 L 25.32123184204102 -1.499999403953552 L 25.32300186157227 5.538940399674175e-07 L 25.32300186157227 0.007970553822815418 L 25.32292175292969 0.0168505534529686 L 25.32280158996582 0.02754055336117744 C 25.32113075256348 0.1851105540990829 25.31943130493164 0.3418905436992645 25.31943130493164 0.4995005428791046 C 25.31943130493164 6.615160465240479 26.63006019592285 12.5655403137207 29.0098819732666 17.25452995300293 L 30.57621192932129 20.34066963195801 Z"/><path class="g" d="M 1.9073486328125e-06 0 C 0.6246013641357422 0.6723003387451172 1.255521774291992 1.325700759887695 1.874721527099609 1.944900512695312 C 9.587711334228516 9.657900810241699 18.74972152709961 15.33690071105957 27.67230033874512 17.93340110778809 C 25.18832015991211 13.03920078277588 23.81943130493164 6.848100662231445 23.81943130493164 0.4995002746582031 C 23.81943130493164 0.3330001831054688 23.82123184204102 0.1674003601074219 23.82300186157227 0.0009002685546875 L 23.82123184204102 0 L 1.9073486328125e-06 0 M -6.882049560546875 -3 L 26.82123184204102 -3 L 26.82300186157227 0.01595115661621094 L 26.82272148132324 0.04349136352539062 C 26.82110023498535 0.19573974609375 26.81943130493164 0.3472213745117188 26.81943130493164 0.4995002746582031 C 26.81943130493164 6.383740425109863 28.0723819732666 12.09303092956543 30.34747123718262 16.57566070556641 L 33.48012161254883 22.74794006347656 L 26.83406066894531 20.81391143798828 C 17.43581008911133 18.0789909362793 7.818380355834961 12.13121032714844 -0.2465991973876953 4.066220283508301 C -0.9066696166992188 3.406150817871094 -1.563169479370117 2.725070953369141 -2.197858810424805 2.04192066192627 L -6.882049560546875 -3 Z"/></g><path class="c" d="M.837,3H0A18.52,18.52,0,0,1,9.946,0a18.155,18.155,0,0,1,8.5,2.166,17.759,17.759,0,0,1,17,0A18.149,18.149,0,0,1,43.946,0,18.52,18.52,0,0,1,53.89,3l-.834,0a17.806,17.806,0,0,0-17.609-.333,17.759,17.759,0,0,0-17,0A18.144,18.144,0,0,0,9.946.5,18.291,18.291,0,0,0,.837,3Z" transform="translate(18.5 53.5)"/></g></svg>