<svg xmlns="http://www.w3.org/2000/svg" width="26.05" height="34" viewBox="0 0 26.05 34">
  <defs>
    <style>
      .cls-1 {
        fill: #3c308c;
      }
    </style>
  </defs>
  <path id="Picture3" class="cls-1" d="M46.794,33.364H27.256V8.636H46.794ZM34.854,5.545H39.2c.6,0,1.085.348,1.085.773s-.488.773-1.085.773H34.854c-.6,0-1.085-.348-1.085-.773S34.257,5.545,34.854,5.545ZM48.965,4H25.085c-.6,0-1.085.348-1.085.773V37.227c0,.425.488.773,1.085.773H48.965c.6,0,1.085-.348,1.085-.773V4.773C50.05,4.348,49.562,4,48.965,4Z" transform="translate(-24 -4)"/>
</svg>
