<svg id="Picture2" xmlns="http://www.w3.org/2000/svg" width="25.398" height="34" viewBox="0 0 25.398 34">
  <defs>
    <style>
      .cls-1 {
        fill: #3c308c;
      }
    </style>
  </defs>
  <path id="Path_6" data-name="Path 6" class="cls-1" d="M46.229,10.187a1.207,1.207,0,0,0,1.229-1.229c0-.7-.533-2.458-1.229-2.458s.164.819-.819,1.639l-.082.082A1.123,1.123,0,0,0,45,8.958,1.207,1.207,0,0,0,46.229,10.187Z" transform="translate(-33.53 -6.5)"/>
  <path id="Path_7" data-name="Path 7" class="cls-1" d="M36.229,15.187a1.207,1.207,0,0,0,1.229-1.229c0-.7-.533-2.458-1.229-2.458s.164.819-.819,1.639l-.082.082a1.123,1.123,0,0,0-.328.737A1.207,1.207,0,0,0,36.229,15.187Z" transform="translate(-27.627 -9.452)"/>
  <path id="Path_8" data-name="Path 8" class="cls-1" d="M56.229,15.187a1.207,1.207,0,0,0,1.229-1.229c0-.7-.533-2.458-1.229-2.458s.164.819-.819,1.639l-.082.082a1.123,1.123,0,0,0-.328.737A1.207,1.207,0,0,0,56.229,15.187Z" transform="translate(-39.434 -9.452)"/>
  <path id="Path_9" data-name="Path 9" class="cls-1" d="M24.037,35.189a3.808,3.808,0,0,1,5.039,0,1.355,1.355,0,0,0,1.557,0,3.808,3.808,0,0,1,5.039,0,1.355,1.355,0,0,0,1.557,0,3.808,3.808,0,0,1,5.039,0,1.063,1.063,0,0,0,.574.246V28.922c0-1.106-2.5-2.048-6.145-2.54V21.958c0-.246-.533-.41-1.229-.41s-1.229.164-1.229.41v4.178c-.533-.041-1.065-.041-1.639-.082V19.91c0-.246-.533-.41-1.229-.41s-1.229.164-1.229.41v6.145c-.573,0-1.106.041-1.639.082V21.958c0-.246-.533-.41-1.229-.41s-1.229.164-1.229.41v4.424c-3.646.492-6.145,1.434-6.145,2.54v5.325a3.745,3.745,0,0,1,2.54.942A1.421,1.421,0,0,0,24.037,35.189Z" transform="translate(-18.712 -14.175)"/>
  <path id="Path_10" data-name="Path 10" class="cls-1" d="M43.058,62.688a3.52,3.52,0,0,1-2.294-.942,1.355,1.355,0,0,0-1.557,0,3.808,3.808,0,0,1-5.039,0,1.355,1.355,0,0,0-1.557,0,3.808,3.808,0,0,1-5.039,0,1.355,1.355,0,0,0-1.557,0,3.808,3.808,0,0,1-5.039,0A1.181,1.181,0,0,0,20.2,61.5v7.373H43.14V62.688Z" transform="translate(-18.889 -38.97)"/>
  <path id="Path_11" data-name="Path 11" class="cls-1" d="M41.169,83.5H18.229a1.229,1.229,0,0,0,0,2.458h22.94a1.229,1.229,0,1,0,0-2.458Z" transform="translate(-17 -51.958)"/>
</svg>
