<svg id="Picture4" xmlns="http://www.w3.org/2000/svg" width="34" height="28.9" viewBox="0 0 34 28.9">
  <defs>
    <style>
      .cls-1 {
        fill: #3c308c;
      }
    </style>
  </defs>
  <path id="Path_12" data-name="Path 12" class="cls-1" d="M45.4,20.8H43.7A1.705,1.705,0,0,1,42,19.1V15.7A1.705,1.705,0,0,1,43.7,14h1.7a1.7,1.7,0,0,1,1.7,1.7v3.4A1.7,1.7,0,0,1,45.4,20.8Z" transform="translate(-27.55 -14)"/>
  <path id="Path_13" data-name="Path 13" class="cls-1" d="M38.6,36.2H28.4V34.5H38.6Zm0,5.1H28.4V39.6H38.6Zm0,5.1H28.4V44.7H38.6ZM25,46.4H11.4V43a1.774,1.774,0,0,1,.68-1.36A10.936,10.936,0,0,1,15.4,40.025,10.688,10.688,0,0,1,18.2,39.6a9.706,9.706,0,0,1,2.805.425A9.272,9.272,0,0,1,24.32,41.64,1.774,1.774,0,0,1,25,43ZM18.2,31.95a3.4,3.4,0,1,1-3.4,3.4A3.41,3.41,0,0,1,18.2,31.95ZM40.3,26H29.25a3.41,3.41,0,0,1-3.4,3.4h-1.7a3.41,3.41,0,0,1-3.4-3.4H9.7A1.7,1.7,0,0,0,8,27.7V48.1a1.7,1.7,0,0,0,1.7,1.7H40.3A1.7,1.7,0,0,0,42,48.1V27.7A1.705,1.705,0,0,0,40.3,26Z" transform="translate(-8 -20.9)"/>
</svg>
