<svg id="Picture7" xmlns="http://www.w3.org/2000/svg" width="30.909" height="34" viewBox="0 0 30.909 34">
  <defs>
    <style>
      .cls-1 {
        fill: #3c308c;
      }
    </style>
  </defs>
  <path id="Path_19" data-name="Path 19" class="cls-1" d="M36.591,34.755l-7.727-7.341,7.727-7.341Zm-25.036.927,7.65-7.225.541-.5a5.442,5.442,0,0,1,7.457,0l.541.5,7.611,7.225ZM10.318,20.034l7.727,7.341-7.727,7.341Zm5.409-9.852H31.182V23.048L27.7,26.37a6.958,6.958,0,0,0-8.5,0l-3.477-3.323ZM33.5,11.225V7.864H28.091L23.455,4,18.818,7.864H13.409v3.4L8,16.4V38H38.909V16.4Z" transform="translate(-8 -4)"/>
  <path id="Path_20" data-name="Path 20" class="cls-1" d="M40.083,32.175a1.236,1.236,0,1,1,0-2.473,1.236,1.236,0,1,1,0,2.473Zm0,3.748a5.61,5.61,0,0,0,2.511-.618.657.657,0,1,0-.618-1.159,4.034,4.034,0,0,1-1.893.464,3.718,3.718,0,0,1-3.709-3.748,3.748,3.748,0,1,1,7.5,0V32.1a1.221,1.221,0,0,1-1.236-1.236,2.532,2.532,0,0,0-2.048-2.511,2.5,2.5,0,0,0-1.777,4.6,2.54,2.54,0,0,0,3.207-.5,2.489,2.489,0,0,0,1.893.85,1.221,1.221,0,0,0,1.236-1.236V30.823a5.023,5.023,0,1,0-5.061,5.1Z" transform="translate(-24.629 -17.377)"/>
</svg>
