<svg xmlns="http://www.w3.org/2000/svg" xmlns:xlink="http://www.w3.org/1999/xlink" width="963" height="30" viewBox="0 0 963 30">
  <defs>
    <style>
      .cls-1 {
        fill: none;
      }

      .cls-2 {
        clip-path: url(#clip-path);
      }

      .cls-3 {
        fill: #f2f5fa;
      }
    </style>
    <clipPath id="clip-path">
      <rect class="cls-1" width="963" height="30"/>
    </clipPath>
  </defs>
  <g id="Repeat_Grid_3" data-name="Repeat Grid 3" class="cls-2">
    <g transform="translate(-480 -358)">
      <circle id="Ellipse_6" data-name="Ellipse 6" class="cls-3" cx="15" cy="15" r="15" transform="translate(480 358)"/>
    </g>
    <g transform="translate(-439 -358)">
      <circle id="Ellipse_6-2" data-name="Ellipse 6" class="cls-3" cx="15" cy="15" r="15" transform="translate(480 358)"/>
    </g>
    <g transform="translate(-398 -358)">
      <circle id="Ellipse_6-3" data-name="Ellipse 6" class="cls-3" cx="15" cy="15" r="15" transform="translate(480 358)"/>
    </g>
    <g transform="translate(-357 -358)">
      <circle id="Ellipse_6-4" data-name="Ellipse 6" class="cls-3" cx="15" cy="15" r="15" transform="translate(480 358)"/>
    </g>
    <g transform="translate(-316 -358)">
      <circle id="Ellipse_6-5" data-name="Ellipse 6" class="cls-3" cx="15" cy="15" r="15" transform="translate(480 358)"/>
    </g>
    <g transform="translate(-275 -358)">
      <circle id="Ellipse_6-6" data-name="Ellipse 6" class="cls-3" cx="15" cy="15" r="15" transform="translate(480 358)"/>
    </g>
    <g transform="translate(-234 -358)">
      <circle id="Ellipse_6-7" data-name="Ellipse 6" class="cls-3" cx="15" cy="15" r="15" transform="translate(480 358)"/>
    </g>
    <g transform="translate(-193 -358)">
      <circle id="Ellipse_6-8" data-name="Ellipse 6" class="cls-3" cx="15" cy="15" r="15" transform="translate(480 358)"/>
    </g>
    <g transform="translate(-152 -358)">
      <circle id="Ellipse_6-9" data-name="Ellipse 6" class="cls-3" cx="15" cy="15" r="15" transform="translate(480 358)"/>
    </g>
    <g transform="translate(-111 -358)">
      <circle id="Ellipse_6-10" data-name="Ellipse 6" class="cls-3" cx="15" cy="15" r="15" transform="translate(480 358)"/>
    </g>
    <g transform="translate(-70 -358)">
      <circle id="Ellipse_6-11" data-name="Ellipse 6" class="cls-3" cx="15" cy="15" r="15" transform="translate(480 358)"/>
    </g>
    <g transform="translate(-29 -358)">
      <circle id="Ellipse_6-12" data-name="Ellipse 6" class="cls-3" cx="15" cy="15" r="15" transform="translate(480 358)"/>
    </g>
    <g transform="translate(12 -358)">
      <circle id="Ellipse_6-13" data-name="Ellipse 6" class="cls-3" cx="15" cy="15" r="15" transform="translate(480 358)"/>
    </g>
    <g transform="translate(53 -358)">
      <circle id="Ellipse_6-14" data-name="Ellipse 6" class="cls-3" cx="15" cy="15" r="15" transform="translate(480 358)"/>
    </g>
    <g transform="translate(94 -358)">
      <circle id="Ellipse_6-15" data-name="Ellipse 6" class="cls-3" cx="15" cy="15" r="15" transform="translate(480 358)"/>
    </g>
    <g transform="translate(135 -358)">
      <circle id="Ellipse_6-16" data-name="Ellipse 6" class="cls-3" cx="15" cy="15" r="15" transform="translate(480 358)"/>
    </g>
    <g transform="translate(176 -358)">
      <circle id="Ellipse_6-17" data-name="Ellipse 6" class="cls-3" cx="15" cy="15" r="15" transform="translate(480 358)"/>
    </g>
    <g transform="translate(217 -358)">
      <circle id="Ellipse_6-18" data-name="Ellipse 6" class="cls-3" cx="15" cy="15" r="15" transform="translate(480 358)"/>
    </g>
    <g transform="translate(258 -358)">
      <circle id="Ellipse_6-19" data-name="Ellipse 6" class="cls-3" cx="15" cy="15" r="15" transform="translate(480 358)"/>
    </g>
    <g transform="translate(299 -358)">
      <circle id="Ellipse_6-20" data-name="Ellipse 6" class="cls-3" cx="15" cy="15" r="15" transform="translate(480 358)"/>
    </g>
    <g transform="translate(340 -358)">
      <circle id="Ellipse_6-21" data-name="Ellipse 6" class="cls-3" cx="15" cy="15" r="15" transform="translate(480 358)"/>
    </g>
    <g transform="translate(381 -358)">
      <circle id="Ellipse_6-22" data-name="Ellipse 6" class="cls-3" cx="15" cy="15" r="15" transform="translate(480 358)"/>
    </g>
    <g transform="translate(422 -358)">
      <circle id="Ellipse_6-23" data-name="Ellipse 6" class="cls-3" cx="15" cy="15" r="15" transform="translate(480 358)"/>
    </g>
    <g transform="translate(463 -358)">
      <circle id="Ellipse_6-24" data-name="Ellipse 6" class="cls-3" cx="15" cy="15" r="15" transform="translate(480 358)"/>
    </g>
  </g>
</svg>
